# xmcd
#
# Track frame offsets:
#	150
#	24893
#	45766
#	68338
#	89691
#	111588
#	128561
#	149716
#	170533
#	191158
#	213744
#	232527
#	253292
#	270880
#	293400
#	307450
#	330193
#
# Disc length: 4681 seconds
#
# Revision: 0
# Processed by: cddbd v1.5.1PL0 Copyright (c) Steve Scherf et al.
# Submitted via: dBpowerAMP V4.0
#
DISCID=ef124711
DTITLE=U2 - Lo mejor de U2
DYEAR=1900
DGENRE=Blues
TTITLE0=Sunday Bloody Sunday
TTITLE1=New years day
TTITLE2=The hands That Built America
TTITLE3=Discotheque
TTITLE4=Staring at the Sun
TTITLE5=The first time
TTITLE6=Electrical Storm
TTITLE7=One
TTITLE8=Miss Sarajevo
TTITLE9=Stay (Faraway . So Close )
TTITLE10=Beatiful day
TTITLE11=Stuck in a moment You can´t get out of
TTITLE12=Pride (in the Name of love )
TTITLE13=Unchained Melody
TTITLE14=The Sweetest Thing
TTITLE15=With Or Without you
TTITLE16=Where the Streets have no name
EXTD=
EXTT0=
EXTT1=
EXTT2=
EXTT3=
EXTT4=
EXTT5=
EXTT6=
EXTT7=
EXTT8=
EXTT9=
EXTT10=
EXTT11=
EXTT12=
EXTT13=
EXTT14=
EXTT15=
EXTT16=
PLAYORDER=
